<?xml version="1.0" encoding="utf-8"?>
<svg xmlns="http://www.w3.org/2000/svg" width="130" height="130" viewBox="0 0 130 130">
  <g fill="#2882fa">
    <path d="M10.43 93.51 c-3.42 -6.76 -5.49 -13.75 -6.33 -21.36 -0.29 -2.63 -0.39 -8.26 -0.21 -11.05 0.91 -13.34 5.73 -25.36 14.27 -35.57 8.85 -10.60 21.49 -18.03 35.07 -20.64 4.41 -0.85 6.80 -1.05 12.28 -1.04 4.98 0 7.27 0.19 11.17 0.91 8.01 1.47 16.02 4.71 22.76 9.19 6.80 4.52 12.87 10.63 17.35 17.45 3.37 5.11 6.15 11.23 7.67 16.87 0.26 0.94 0.52 1.81 0.58 1.92 0.06 0.12 0.14 0.44 0.19 0.71 0.27 1.66 0.51 2.86 0.60 2.98 0.05 0.08 0.17 0.78 0.25 1.56 0.08 0.79 0.19 1.81 0.27 2.28 0.06 0.47 0.19 1.31 0.27 1.88 0.22 1.52 0.21 9.87 -0.01 11.90 -0.09 0.90 -0.22 1.69 -0.27 1.75 -0.05 0.08 -0.13 0.66 -0.17 1.30 -0.09 1.48 -0.86 5.26 -1.59 7.80 -0.98 3.35 -2.90 8.52 -3.20 8.52 -0.06 0 -0.12 0.12 -0.12 0.26 0 0.34 -1.61 3.56 -1.95 3.90 -0.14 0.14 -0.42 0.26 -0.61 0.26 -0.34 0 -0.43 -0.14 -1.33 -1.99 -3.06 -6.29 -6.81 -11.48 -11.93 -16.47 -3.25 -3.18 -6.49 -5.69 -10.40 -8.10 -1.81 -1.11 -6.58 -3.51 -8.03 -4.06 -4.86 -1.82 -5.78 -2.11 -9.76 -2.99 -1.78 -0.40 -3.04 -0.77 -3.67 -1.05 -2.68 -1.22 -4.63 -3.44 -5.55 -6.30 -0.30 -0.91 -0.36 -1.39 -0.43 -2.92 -0.12 -3.63 0.60 -5.66 2.87 -8.09 1.30 -1.39 1.81 -2.14 2.26 -3.42 0.30 -0.82 0.35 -1.17 0.35 -2.33 0 -1.14 -0.05 -1.51 -0.34 -2.24 -1.52 -4.02 -5.62 -6.29 -9.27 -5.17 -3.07 0.95 -5.24 3.43 -5.77 6.59 -0.35 2.03 0.53 4.39 2.33 6.28 1.59 1.68 2.25 2.77 2.81 4.61 0.30 1.03 0.35 1.40 0.35 3.12 0.01 1.64 -0.04 2.13 -0.27 3.03 -1 3.70 -3.87 6.55 -7.50 7.42 -0.57 0.13 -1.74 0.40 -2.60 0.60 -8.79 1.99 -16.97 6.05 -24.14 11.96 -2.03 1.68 -5.69 5.30 -7.24 7.15 -3.24 3.90 -5.66 7.61 -7.83 12 l-1.18 2.37 -0.56 0 -0.57 0 -0.90 -1.78z"/>
  </g>
  <g fill="#289efa">
    <path d="M0 65 l0 -65 65 0 65 0 0 65 0 65 -65 0 -65 0 0 -65z m70.46 60.90 c2.77 -0.25 4.42 -0.48 6.89 -0.99 16.73 -3.44 31.12 -13.60 40 -28.26 0.52 -0.85 0.95 -1.68 0.95 -1.85 0 -0.38 0.22 -0.51 0.32 -0.18 0.08 0.25 0.09 0.25 0.31 0.04 0.13 -0.12 0.21 -0.26 0.18 -0.31 -0.03 -0.06 0.01 -0.10 0.09 -0.10 0.08 0 0.10 -0.05 0.06 -0.13 -0.04 -0.06 -0.01 -0.13 0.06 -0.13 0.08 0 0.10 -0.05 0.06 -0.13 -0.04 -0.06 -0.01 -0.13 0.06 -0.13 0.08 0 0.10 -0.05 0.06 -0.13 -0.04 -0.06 -0.01 -0.13 0.06 -0.13 0.08 0 0.10 -0.05 0.06 -0.13 -0.04 -0.06 -0.01 -0.13 0.06 -0.13 0.08 0 0.10 -0.05 0.06 -0.13 -0.04 -0.06 -0.01 -0.13 0.06 -0.13 0.08 0 0.10 -0.05 0.06 -0.13 -0.04 -0.06 -0.01 -0.13 0.06 -0.13 0.08 0 0.10 -0.05 0.06 -0.13 -0.04 -0.08 -0.01 -0.13 0.06 -0.13 0.08 0 0.10 -0.05 0.06 -0.13 -0.04 -0.06 -0.01 -0.13 0.06 -0.13 0.08 0 0.10 -0.05 0.06 -0.13 -0.04 -0.06 -0.01 -0.13 0.06 -0.13 0.08 0 0.10 -0.05 0.06 -0.13 -0.04 -0.06 -0.01 -0.13 0.06 -0.13 0.08 0 0.10 -0.05 0.06 -0.13 -0.04 -0.06 -0.01 -0.13 0.06 -0.13 0.08 0 0.10 -0.05 0.06 -0.13 -0.04 -0.06 -0.03 -0.13 0.05 -0.13 0.08 0 0.10 -0.08 0.06 -0.18 -0.04 -0.09 0.03 -0.26 0.13 -0.38 0.10 -0.10 0.16 -0.22 0.12 -0.27 -0.05 -0.04 -0.01 -0.08 0.08 -0.08 0.09 0 0.12 -0.05 0.08 -0.13 -0.04 -0.06 -0.01 -0.13 0.06 -0.13 0.08 0 0.10 -0.05 0.06 -0.13 -0.04 -0.06 -0.03 -0.13 0.05 -0.13 0.08 0 0.10 -0.09 0.06 -0.19 -0.05 -0.10 -0.01 -0.19 0.08 -0.19 0.08 0 0.10 -0.05 0.06 -0.13 -0.04 -0.06 -0.01 -0.13 0.06 -0.13 0.08 0 0.10 -0.05 0.06 -0.13 -0.04 -0.06 -0.03 -0.13 0.05 -0.13 0.08 0 0.10 -0.09 0.06 -0.19 -0.05 -0.10 -0.01 -0.19 0.08 -0.19 0.08 0 0.10 -0.05 0.06 -0.13 -0.04 -0.08 -0.01 -0.13 0.06 -0.13 0.09 0 0.13 -0.09 0.08 -0.19 -0.04 -0.10 -0.01 -0.19 0.06 -0.19 0.08 0 0.09 -0.05 0.05 -0.13 -0.04 -0.06 -0.01 -0.13 0.06 -0.13 0.09 0 0.13 -0.09 0.08 -0.19 -0.04 -0.10 -0.01 -0.19 0.05 -0.19 0.06 0 0.09 -0.09 0.05 -0.19 -0.05 -0.10 -0.01 -0.19 0.06 -0.19 0.08 0 0.10 -0.09 0.06 -0.19 -0.05 -0.10 -0.01 -0.19 0.08 -0.19 0.08 0 0.10 -0.05 0.06 -0.13 -0.04 -0.06 -0.01 -0.13 0.06 -0.13 0.09 0 0.13 -0.09 0.08 -0.19 -0.04 -0.10 -0.01 -0.19 0.05 -0.19 0.06 0 0.09 -0.09 0.05 -0.19 -0.05 -0.10 -0.01 -0.19 0.06 -0.19 0.08 0 0.10 -0.09 0.06 -0.19 -0.05 -0.10 -0.01 -0.19 0.06 -0.19 0.08 0 0.10 -0.09 0.06 -0.19 -0.05 -0.10 -0.01 -0.19 0.06 -0.19 0.08 0 0.10 -0.09 0.06 -0.19 -0.05 -0.10 -0.01 -0.19 0.06 -0.19 0.08 0 0.10 -0.09 0.06 -0.19 -0.05 -0.10 -0.01 -0.19 0.08 -0.19 0.09 0 0.13 -0.09 0.08 -0.19 -0.04 -0.10 -0.01 -0.19 0.06 -0.19 0.08 0 0.12 -0.09 0.06 -0.19 -0.04 -0.10 -0.01 -0.19 0.06 -0.19 0.08 0 0.10 -0.12 0.05 -0.26 -0.05 -0.16 -0.03 -0.26 0.06 -0.26 0.09 0 0.13 -0.09 0.09 -0.19 -0.05 -0.10 -0.03 -0.22 0.04 -0.26 0.06 -0.04 0.09 -0.16 0.04 -0.26 -0.04 -0.10 0 -0.19 0.09 -0.19 0.09 0 0.13 -0.09 0.08 -0.19 -0.04 -0.10 0 -0.19 0.06 -0.19 0.08 0 0.12 -0.12 0.08 -0.26 -0.04 -0.14 -0.01 -0.26 0.06 -0.26 0.08 0 0.10 -0.12 0.06 -0.26 -0.04 -0.14 -0.01 -0.26 0.06 -0.26 0.08 0 0.10 -0.12 0.06 -0.26 -0.04 -0.14 -0.01 -0.26 0.05 -0.26 0.06 0 0.09 -0.14 0.04 -0.32 -0.05 -0.21 -0.03 -0.32 0.06 -0.32 0.09 0 0.12 -0.12 0.06 -0.32 -0.05 -0.19 -0.03 -0.32 0.06 -0.32 0.08 0 0.10 -0.09 0.06 -0.19 -0.05 -0.10 -0.01 -0.27 0.06 -0.38 0.08 -0.09 0.12 -0.27 0.06 -0.39 -0.05 -0.12 -0.01 -0.21 0.08 -0.21 0.10 0 0.13 -0.12 0.08 -0.32 -0.05 -0.19 -0.03 -0.32 0.06 -0.32 0.09 0 0.10 -0.14 0.05 -0.39 -0.05 -0.26 -0.04 -0.39 0.06 -0.39 0.10 0 0.13 -0.12 0.08 -0.32 -0.05 -0.18 -0.05 -0.40 0 -0.48 0.05 -0.08 0.12 -0.52 0.13 -0.99 0.03 -0.47 0.10 -0.91 0.17 -0.98 0.08 -0.08 0.09 -0.30 0.05 -0.49 -0.04 -0.22 0 -0.46 0.09 -0.57 0.10 -0.12 0.13 -0.36 0.08 -0.66 -0.06 -0.29 -0.04 -0.53 0.06 -0.65 0.09 -0.12 0.12 -0.42 0.05 -0.90 -0.05 -0.48 -0.04 -0.79 0.06 -0.91 0.14 -0.17 0.10 -5.88 -0.05 -7.61 -0.16 -1.65 -0.19 -2.09 -0.39 -3.52 -0.12 -0.83 -0.25 -1.77 -0.29 -2.08 -0.10 -0.94 -0.13 -1.08 -0.22 -1.29 -0.08 -0.19 -0.47 -2.13 -0.55 -2.73 -0.03 -0.18 -0.06 -0.35 -0.08 -0.39 -0.01 -0.04 -0.04 -0.12 -0.05 -0.19 -0.01 -0.06 -0.06 -0.22 -0.10 -0.32 -0.04 -0.10 -0.29 -0.98 -0.55 -1.91 -3.72 -13.69 -12.86 -26.21 -25.02 -34.32 -6.75 -4.49 -14.76 -7.72 -22.76 -9.19 -3.78 -0.70 -6.21 -0.90 -10.78 -0.91 -5.07 -0.01 -7.58 0.21 -11.90 1.04 -18.89 3.64 -35.15 16.22 -43.50 33.67 -4.16 8.70 -6.18 18.15 -5.93 27.87 0.25 9.39 2.39 17.95 6.62 26.30 0.51 1 0.98 1.78 1.08 1.78 0.10 0 0.25 -0.12 0.32 -0.26 0.21 -0.39 0.39 -0.31 0.39 0.16 0 0.44 0.81 1.90 2.25 4.07 6.06 9.09 14.55 16.50 24.34 21.20 5.59 2.69 11.83 4.63 17.55 5.45 4.09 0.58 9.63 0.74 13.72 0.39z"/>
  </g>
  <g fill="#55a6ff">
    <path d="M59.74 126.28 c-4.97 -0.44 -9.23 -1.37 -14.14 -3.04 -13.55 -4.61 -24.95 -13.79 -32.47 -26.14 -1.04 -1.72 -1.12 -1.87 -0.98 -2.22 0.08 -0.21 0.22 -0.35 0.32 -0.34 0.16 0.04 0.75 0.95 1.56 2.38 0.21 0.36 1.74 2.70 2.30 3.50 0.13 0.19 0.68 0.91 1.20 1.59 0.51 0.68 0.94 1.25 0.94 1.27 0 0.03 0.29 0.36 0.65 0.74 0.35 0.39 0.65 0.74 0.65 0.78 0 0.16 4.39 4.61 5.62 5.71 0.35 0.32 0.82 0.74 1.04 0.95 0.21 0.19 0.40 0.35 0.44 0.35 0.03 0 0.62 0.46 1.31 1.01 2.52 2 4.86 3.59 7.84 5.30 1.43 0.82 4.77 2.51 5.59 2.81 0.10 0.05 0.43 0.17 0.71 0.29 0.29 0.12 0.42 0.13 0.27 0.04 -0.13 -0.08 -0.79 -0.52 -1.46 -0.96 -2.78 -1.83 -5.90 -4.78 -7.62 -7.20 -1.73 -2.42 -3.20 -5.85 -3.69 -8.63 -0.32 -1.81 -0.32 -5.50 0 -7.28 0.82 -4.58 3.08 -8.58 6.98 -12.35 3.42 -3.32 7.80 -5.94 12.90 -7.74 10.41 -3.65 23.40 -3.37 33.37 0.74 9.67 3.99 16.11 10.75 17.81 18.71 0.40 1.85 0.49 5.33 0.21 7.31 -0.69 4.69 -2.89 8.84 -6.70 12.64 -1.52 1.52 -4.02 3.48 -5.64 4.45 -0.48 0.29 -0.86 0.55 -0.83 0.57 0.09 0.09 2.46 -0.99 4.77 -2.17 10.17 -5.17 18.76 -13.23 24.75 -23.22 0.48 -0.81 0.95 -1.47 1.04 -1.47 0.10 0 0.21 0.13 0.26 0.30 0.09 0.36 -0.60 1.59 -2.59 4.58 -6.19 9.26 -15.05 16.83 -25.08 21.41 -6.62 3.03 -13.09 4.74 -20.23 5.37 -2.78 0.23 -8.39 0.23 -11.11 -0.01z m-4.99 -16.89 c1.82 -0.39 3.35 -1.17 4.74 -2.46 1.82 -1.66 3.02 -3.95 3.28 -6.33 l0.09 -0.83 0.58 -0.09 c1.44 -0.21 4.41 -0.08 4.49 0.21 0.03 0.08 0.13 0.66 0.26 1.31 0.12 0.64 0.36 1.55 0.55 2.02 1.55 3.89 5.75 6.64 9.65 6.33 4.58 -0.38 8.40 -4 9.13 -8.67 0.47 -3.03 -1.05 -6.53 -3.82 -8.75 -1.74 -1.40 -4.58 -2.33 -6.51 -2.12 -3.69 0.38 -7.12 2.94 -8.41 6.27 l-0.31 0.78 -3.02 0 -3.02 0 -0.35 -0.85 c-1.12 -2.63 -3.46 -4.81 -6.08 -5.67 -2.14 -0.70 -3.39 -0.73 -5.47 -0.13 -3.43 0.99 -6.21 3.94 -7.01 7.47 -0.66 2.90 0.27 6.12 2.43 8.42 2.44 2.59 5.71 3.73 8.81 3.08z"/>
    <path d="M51.73 107.47 c-0.61 -0.40 -0.77 -0.79 -0.77 -1.86 0 -0.74 0.05 -1 0.27 -1.27 0.35 -0.46 0.82 -0.68 1.61 -0.78 1.13 -0.14 1.86 -0.46 2.59 -1.13 0.81 -0.74 1.21 -1.56 1.35 -2.77 0.16 -1.27 0.64 -1.82 1.73 -1.98 0.79 -0.10 1.65 0.14 2.09 0.62 0.35 0.38 0.36 0.44 0.36 1.72 0 1.57 -0.22 2.51 -0.87 3.76 -1.27 2.43 -3.96 3.98 -6.88 3.99 -0.88 0 -1.13 -0.05 -1.50 -0.30z"/>
    <path d="M76.31 107.28 c-0.55 -0.55 -0.73 -1.22 -0.60 -2.16 0.09 -0.61 0.69 -1.34 1.17 -1.43 0.14 -0.03 0.64 -0.12 1.08 -0.18 2.05 -0.34 3.25 -1.60 3.58 -3.74 0.18 -1.21 0.43 -1.64 1.14 -1.92 0.96 -0.39 2.04 -0.21 2.66 0.44 0.32 0.35 0.39 0.52 0.43 1.29 0.13 2.28 -0.65 4.36 -2.24 5.94 -1.53 1.55 -3.30 2.26 -5.59 2.26 l-1.14 0 -0.49 -0.49z"/>
  </g>
  <g fill="#ffffff">
    <path d="M78.91 124.81 c0 -0.04 0.60 -0.27 1.34 -0.51 5.24 -1.70 10.18 -4.65 13.75 -8.22 4.74 -4.74 7.07 -10.15 6.84 -15.99 -0.16 -3.84 -1.20 -6.99 -3.44 -10.47 -6.14 -9.48 -20.15 -15.42 -34.45 -14.63 -7.67 0.43 -14.30 2.38 -20.24 5.95 -2.02 1.21 -3.80 2.59 -5.51 4.25 -3.90 3.77 -6.18 7.79 -6.98 12.35 -0.31 1.74 -0.30 4.73 0 6.50 0.49 2.77 1.95 6.20 3.69 8.65 1.11 1.56 4.34 4.82 6.07 6.11 2.94 2.20 6.76 4.20 10.17 5.33 0.81 0.26 1.43 0.51 1.39 0.55 -0.16 0.17 -4.97 -1.27 -7.53 -2.24 -5.85 -2.22 -11.31 -5.34 -16.22 -9.26 -0.69 -0.56 -1.29 -1.01 -1.31 -1.01 -0.04 0 -0.23 -0.16 -0.44 -0.35 -0.22 -0.21 -0.69 -0.62 -1.04 -0.95 -1.22 -1.09 -5.62 -5.55 -5.62 -5.71 0 -0.04 -0.30 -0.39 -0.65 -0.78 -0.36 -0.38 -0.65 -0.71 -0.65 -0.74 0 -0.03 -0.36 -0.51 -0.79 -1.07 -0.44 -0.55 -0.94 -1.21 -1.11 -1.46 -0.17 -0.25 -0.77 -1.16 -1.34 -2 -0.58 -0.86 -1.05 -1.57 -1.05 -1.59 0 -0.01 -0.35 -0.62 -0.78 -1.34 -0.43 -0.73 -0.78 -1.39 -0.78 -1.50 0 -0.29 2.51 -5.12 3.44 -6.64 2.72 -4.42 5.15 -7.49 8.71 -11.05 7.85 -7.85 17.49 -13.19 28.08 -15.60 3.04 -0.69 3.64 -0.85 4.47 -1.24 2.76 -1.29 4.84 -3.81 5.62 -6.79 0.43 -1.60 0.39 -3.77 -0.08 -5.37 -0.53 -1.85 -1.21 -2.94 -2.80 -4.61 -1.90 -1.99 -2.76 -4.56 -2.34 -7.02 0.69 -4.07 4.02 -6.94 8.06 -6.94 3.55 0 6.46 2.05 7.77 5.49 0.31 0.78 0.34 1.05 0.34 2.63 0 1.59 -0.03 1.85 -0.35 2.72 -0.47 1.27 -0.98 2.04 -2.26 3.42 -2.20 2.35 -3.02 4.55 -2.86 7.70 0.18 3.89 2.43 7.23 5.97 8.84 0.62 0.29 1.88 0.65 3.67 1.05 3.98 0.88 4.90 1.17 9.76 2.99 1.46 0.55 6.23 2.95 8.03 4.06 3.91 2.40 7.15 4.91 10.40 8.10 4.11 4 7.14 7.86 9.93 12.68 1 1.72 2.90 5.50 2.90 5.77 0 0.09 -0.39 0.82 -0.87 1.63 -5.19 8.66 -12.08 15.61 -20.83 21.05 -3.38 2.09 -8.85 4.61 -12.71 5.86 -2.48 0.79 -5.37 1.55 -5.37 1.39z"/>
    <path d="M51.10 109.84 c-3.30 -0.65 -6.29 -3.09 -7.47 -6.11 -0.81 -2.04 -0.99 -4.26 -0.53 -6.23 1.78 -7.61 11.10 -10.49 16.85 -5.23 0.98 0.90 1.99 2.33 2.50 3.55 l0.36 0.83 2.63 0 2.64 0 0.30 -0.78 c0.17 -0.43 0.57 -1.18 0.90 -1.68 2.91 -4.42 8.55 -5.86 13.36 -3.42 1.77 0.90 3.58 2.85 4.47 4.82 2.54 5.59 -0.53 12.25 -6.47 14 -1.11 0.34 -3.34 0.46 -4.47 0.26 -2.07 -0.35 -3.95 -1.31 -5.43 -2.74 -1.56 -1.51 -2.52 -3.33 -2.92 -5.53 -0.13 -0.65 -0.23 -1.24 -0.26 -1.31 -0.08 -0.29 -2.37 -0.40 -3.70 -0.21 l-0.58 0.09 -0.09 0.83 c-0.47 4.28 -3.77 7.89 -8.02 8.79 -1.01 0.21 -3.09 0.23 -4.03 0.05z m3.59 -2.65 c3.41 -0.81 5.89 -3.84 5.89 -7.16 0 -0.85 -0.04 -0.98 -0.36 -1.33 -0.73 -0.78 -1.91 -0.78 -2.55 -0.01 -0.35 0.42 -0.40 0.57 -0.52 1.59 -0.23 1.98 -1.74 3.41 -3.91 3.68 -1.24 0.17 -1.88 0.74 -1.88 1.66 0.01 1.51 1.21 2.08 3.34 1.57z m24.84 0 c2.90 -0.69 5.30 -3.26 5.76 -6.16 0.19 -1.27 0.10 -1.90 -0.35 -2.37 -0.52 -0.55 -1.20 -0.70 -1.86 -0.43 -0.73 0.29 -0.98 0.71 -1.16 1.92 -0.32 2.14 -1.52 3.41 -3.58 3.74 -0.44 0.06 -0.94 0.16 -1.08 0.18 -0.39 0.06 -1.05 0.78 -1.13 1.22 -0.12 0.57 0.13 1.25 0.64 1.68 0.39 0.35 0.55 0.40 1.20 0.40 0.40 0 1.11 -0.09 1.56 -0.19z"/>
  </g>
</svg>
