<?xml version="1.0" encoding="utf-8"?>
<svg xmlns="http://www.w3.org/2000/svg" width="65" height="65" fill="none" viewBox="0 0 65 65">
  <g fill="#2882fa">
    <path
      d="M59.25 47.11 c-0.79 -1.75 -2.13 -4.04 -2.98 -5.13 -0.07 -0.10 -0.24 -0.31 -0.36 -0.49 -1.07 -1.48 -3.55 -4.04 -4.98 -5.14 -2.37 -1.81 -4.05 -2.85 -6.15 -3.79 -0.33 -0.14 -0.73 -0.33 -0.90 -0.40 -0.91 -0.42 -3.93 -1.38 -4.78 -1.52 -1.01 -0.16 -1.99 -0.47 -2.56 -0.80 -0.94 -0.55 -1.71 -1.45 -2.14 -2.49 -0.47 -1.12 -0.46 -2.80 0.02 -3.91 0.29 -0.67 0.56 -1.05 1.14 -1.66 0.88 -0.92 1.27 -1.81 1.27 -2.96 0 -1.73 -0.94 -3.14 -2.56 -3.84 -0.45 -0.19 -0.61 -0.23 -1.22 -0.26 -0.88 -0.05 -1.40 0.04 -2.01 0.32 -1.53 0.72 -2.42 2.11 -2.43 3.73 0 1.18 0.33 1.99 1.20 2.93 0.70 0.75 0.88 1.02 1.18 1.70 0.35 0.81 0.47 1.80 0.34 2.77 -0.23 1.62 -1.14 2.93 -2.60 3.74 -0.44 0.24 -1.25 0.49 -2.10 0.66 -1.70 0.33 -4.21 1.16 -5.95 1.98 -1.53 0.71 -3.63 1.90 -4.42 2.50 -0.27 0.20 -1.24 0.92 -1.39 1.02 -0.39 0.27 -1.99 1.69 -2.67 2.37 -1.59 1.59 -2.87 3.18 -4.06 5.04 -0.70 1.09 -1.46 2.49 -1.92 3.56 -0.10 0.22 -0.20 0.40 -0.23 0.40 -0.05 0 -1.36 -2.60 -1.36 -2.70 0 -0.03 -0.08 -0.26 -0.19 -0.51 -0.81 -1.92 -1.70 -5.14 -1.89 -6.82 -0.03 -0.29 -0.10 -0.87 -0.16 -1.29 -0.26 -1.97 -0.25 -4.82 0.01 -6.75 0.05 -0.40 0.12 -0.97 0.16 -1.25 0.03 -0.29 0.13 -0.86 0.22 -1.27 0.09 -0.41 0.18 -0.86 0.21 -1.01 0.02 -0.14 0.11 -0.51 0.20 -0.81 0.09 -0.31 0.19 -0.66 0.21 -0.78 0.08 -0.40 0.73 -2.28 1.17 -3.35 0.29 -0.72 1.30 -2.75 1.70 -3.41 0.18 -0.31 0.39 -0.65 0.46 -0.77 0.24 -0.42 1.19 -1.81 1.59 -2.33 0.14 -0.18 0.33 -0.44 0.44 -0.58 1.53 -2.02 4.24 -4.58 6.45 -6.10 0.65 -0.46 2.13 -1.40 2.19 -1.40 0.03 0 0.12 -0.05 0.21 -0.12 0.62 -0.44 3.04 -1.56 4.60 -2.14 1.72 -0.64 4.50 -1.35 5.85 -1.51 0.29 -0.03 0.87 -0.10 1.29 -0.16 1.97 -0.26 4.82 -0.25 6.75 0.01 0.40 0.05 0.98 0.12 1.29 0.16 1.72 0.20 4.68 1.01 6.63 1.81 0.19 0.08 0.47 0.19 0.62 0.24 0.73 0.27 2.84 1.36 4.09 2.12 2.09 1.27 4.58 3.29 6.17 5.02 1.05 1.13 2.13 2.44 2.64 3.19 0.80 1.18 1.63 2.46 1.63 2.54 0 0.02 0.05 0.12 0.12 0.21 0.25 0.36 1.25 2.41 1.65 3.39 0.64 1.57 1.39 3.91 1.51 4.71 0.02 0.14 0.10 0.55 0.19 0.89 0.08 0.34 0.17 0.80 0.19 1.01 0.03 0.21 0.10 0.77 0.16 1.25 0.29 2.03 0.33 4.96 0.10 6.82 -0.20 1.65 -0.31 2.40 -0.46 3.06 -0.09 0.38 -0.18 0.80 -0.20 0.94 -0.02 0.14 -0.11 0.50 -0.20 0.81 -0.09 0.31 -0.20 0.71 -0.25 0.91 -0.05 0.19 -0.14 0.51 -0.21 0.68 -0.06 0.18 -0.19 0.51 -0.27 0.75 -0.49 1.44 -1.21 3.06 -1.88 4.27 l-0.18 0.34 -0.19 -0.41z"/>
  </g>
  <g fill="#55a6ff">
    <path
      d="M30.81 63.24 c-0.57 -0.05 -1.85 -0.23 -2.76 -0.39 -1.44 -0.25 -3.58 -0.96 -5.14 -1.72 -0.81 -0.39 -2.13 -1.15 -2.40 -1.39 -0.07 -0.06 -0.25 -0.19 -0.41 -0.30 -0.70 -0.47 -1.98 -1.68 -2.63 -2.47 -1.11 -1.38 -1.78 -2.73 -2.20 -4.39 -0.17 -0.69 -0.21 -0.98 -0.23 -1.85 -0.04 -1.12 0.01 -1.58 0.28 -2.70 0.58 -2.40 2.29 -4.82 4.67 -6.60 1.57 -1.18 3.98 -2.39 5.74 -2.89 0.25 -0.06 0.65 -0.18 0.90 -0.25 0.86 -0.25 2.08 -0.47 3.22 -0.61 2.29 -0.28 5.74 -0.15 7.54 0.28 0.31 0.07 0.70 0.16 0.88 0.19 0.64 0.12 1.72 0.46 2.92 0.92 1.82 0.70 3.44 1.66 4.97 2.95 2.03 1.70 3.35 3.72 3.97 6.06 0.22 0.81 0.22 0.82 0.22 2.31 -0.01 1.48 -0.01 1.50 -0.21 2.28 -0.56 2.07 -1.44 3.56 -3.09 5.28 -0.72 0.75 -2.16 1.87 -3.13 2.42 -0.53 0.30 -1.54 0.84 -1.58 0.84 -0.03 0 -0.13 0.05 -0.24 0.10 -1.19 0.62 -3.95 1.42 -5.91 1.72 -1.72 0.25 -3.78 0.32 -5.36 0.19z m-3.55 -8.26 c0.68 -0.08 1.47 -0.38 2.09 -0.79 0.54 -0.36 1.25 -1.11 1.57 -1.64 0.34 -0.58 0.68 -1.51 0.72 -2.02 l0.04 -0.40 0.30 -0.05 c0.37 -0.06 1.11 -0.06 1.50 0 l0.29 0.05 0.01 0.36 c0.02 0.43 0.34 1.43 0.61 1.87 0.10 0.18 0.19 0.33 0.19 0.35 0 0.06 0.66 0.80 0.96 1.08 0.68 0.62 1.63 1.06 2.64 1.20 0.64 0.09 0.79 0.09 1.44 0 2 -0.27 3.58 -1.62 4.21 -3.61 0.19 -0.58 0.21 -0.71 0.21 -1.48 0 -0.77 -0.02 -0.90 -0.20 -1.46 -0.27 -0.83 -0.60 -1.40 -1.18 -2.02 -1.01 -1.09 -2.34 -1.66 -3.81 -1.64 -1.48 0.02 -2.66 0.55 -3.69 1.64 -0.51 0.54 -0.81 1 -1.03 1.59 l-0.13 0.34 -0.28 -0.05 c-0.35 -0.06 -1.68 -0.07 -2.03 0 l-0.27 0.05 -0.12 -0.33 c-0.29 -0.82 -1.13 -1.87 -1.92 -2.39 -0.49 -0.33 -1.18 -0.62 -1.72 -0.75 -0.59 -0.13 -1.69 -0.13 -2.29 0.01 -1.75 0.38 -3.25 1.79 -3.76 3.50 -0.32 1.08 -0.32 1.94 0 3.02 0.55 1.82 2.20 3.29 4 3.56 0.72 0.11 0.95 0.11 1.65 0.03z"/>
    <path
      d="M26.23 53.60 c-0.30 -0.13 -0.44 -0.33 -0.47 -0.68 -0.05 -0.58 0.29 -0.92 0.94 -0.92 0.89 0 1.85 -0.94 1.94 -1.90 0.06 -0.54 0.14 -0.74 0.38 -0.89 0.57 -0.35 1.27 0.06 1.27 0.75 0 0.44 -0.29 1.42 -0.53 1.83 -0.60 1 -1.59 1.66 -2.76 1.85 -0.49 0.08 -0.54 0.08 -0.78 -0.03z"/>
    <path
      d="M38.56 53.60 c-0.23 -0.10 -0.47 -0.51 -0.47 -0.79 0 -0.23 0.23 -0.59 0.46 -0.71 0.10 -0.05 0.34 -0.10 0.54 -0.10 0.72 0 1.53 -0.62 1.79 -1.38 0.07 -0.22 0.15 -0.54 0.16 -0.71 0.03 -0.34 0.24 -0.68 0.48 -0.77 0.60 -0.23 1.12 0.18 1.12 0.88 0 1.30 -0.88 2.66 -2.09 3.24 -0.79 0.38 -1.60 0.52 -1.98 0.34z"/>
  </g>
</svg>
