<?xml version="1.0" encoding="utf-8"?>
<svg xmlns="http://www.w3.org/2000/svg" xmlns:xlink="http://www.w3.org/1999/xlink" width="261" height="66"
     viewBox="0 0 261 66">
  <symbol id="logo-symbol-wordmark">

    <g fill="#2882fa">
      <path
        d="M25.83 63.83 c-5.80 -0.93 -9.90 -3.13 -13.87 -7.43 -4.50 -4.90 -6.87 -12.07 -5.97 -18.20 1.53 -10.37 7.93 -17.57 18 -20.17 1.77 -0.47 2.30 -0.77 2.90 -1.67 1.27 -1.90 0.87 -3.87 -1.13 -5.77 -2.83 -2.60 -1.90 -7.03 1.77 -8.43 1.30 -0.50 1.73 -0.53 2.93 -0.17 2.40 0.70 3.87 2.57 3.87 5 0 1.67 -0.57 2.83 -2.13 4.27 -1.07 1 -1.20 1.30 -1.20 2.77 0 2.33 0.67 3.20 2.97 3.83 5.73 1.57 8.57 3.20 12.27 7.03 6.73 6.97 8.30 17.40 3.93 26.27 -2.83 5.70 -7.37 9.60 -13.67 11.77 -1.80 0.60 -2.87 0.80 -6.83 1.20 -0.63 0.07 -2.37 -0.07 -3.83 -0.30z m6.73 -8.97 c4.33 -1.17 7.87 -4.07 9.80 -8.03 1.07 -2.20 1.10 -2.53 1.13 -6 0 -3.60 -0.03 -3.70 -1.30 -6.27 -3.73 -7.50 -12.17 -10.30 -19.70 -6.53 -3.37 1.67 -5.90 4.77 -7.17 8.77 -1.23 3.80 -0.57 8.47 1.73 11.80 3.63 5.27 9.83 7.77 15.50 6.27z"/>
      <path
        d="M127.33 61.67 l-1.33 -1.33 0 -19.33 c0 -18.70 -0.03 -19.37 -0.70 -21.17 -0.73 -2 -2.20 -3.70 -3.80 -4.37 -0.67 -0.27 -0.83 -0.47 -0.50 -0.57 0.27 -0.10 1 -0.33 1.63 -0.53 2.93 -0.93 7.20 -0.10 9.73 1.97 l1.27 1 5.97 0 c5.70 0 6 -0.03 6.60 -0.73 0.33 -0.37 1.60 -1.13 2.77 -1.67 1.93 -0.90 2.43 -0.97 4.67 -0.87 1.40 0.10 2.97 0.33 3.50 0.57 l1 0.40 -1 0.50 c-1.27 0.67 -2.17 1.50 -2.87 2.73 l-0.60 1 1.77 0.90 c5.53 2.90 9.70 7.80 11.47 13.47 0.73 2.43 0.87 3.47 0.87 6.70 0 4.23 -0.50 6.50 -2.10 9.90 -2.87 6.17 -8.40 10.60 -15.33 12.30 -1.33 0.33 -4.60 0.43 -11.73 0.47 l-9.93 0 -1.33 -1.33z m21.37 -8.03 c2.37 -0.77 4.20 -1.87 6 -3.63 7.93 -7.87 3.83 -20.90 -7.30 -23.30 -0.97 -0.20 -4.17 -0.37 -7.07 -0.37 l-5.33 0 0 13.83 0 13.83 6.30 0 c3.57 0 6.77 -0.17 7.40 -0.37z"/>
    </g>
    <g fill="#57c3ff">
      <path
        d="M96.50 63.83 c-8.17 -1.30 -14.37 -6.70 -16.63 -14.57 -0.33 -1.13 -0.53 -3.10 -0.53 -5.10 0 -5.93 1.57 -9.77 5.67 -13.83 2.67 -2.67 5.03 -4.13 8.63 -5.30 1.67 -0.53 3 -0.70 6 -0.70 3.83 0 5.17 0.27 8.37 1.53 5 2 9.40 6.77 11.27 12.30 0.80 2.27 1.07 5.80 1.07 13.20 0 6.93 -0.10 7.97 -0.63 9.20 -1.50 3.27 -6.53 3.33 -8.20 0.10 -0.40 -0.80 -0.50 -2.63 -0.50 -9.83 0 -8.10 -0.07 -9.03 -0.70 -10.93 -1.30 -3.83 -3.73 -6.27 -7.50 -7.40 -3.77 -1.13 -7.27 -0.23 -10.43 2.70 -4.83 4.43 -5.40 11.33 -1.37 16.43 2.43 3.07 5.10 4.37 8.93 4.37 4.07 0 6.07 1.63 5.63 4.67 -0.23 1.90 -1.27 2.93 -3.20 3.17 -0.83 0.13 -1.90 0.27 -2.37 0.33 -0.47 0.07 -2.03 -0.10 -3.50 -0.33z"/>
      <path
        d="M219.60 62.47 c-1.93 -1.03 -2.10 -1.77 -2.20 -11.43 -0.13 -11.90 0.33 -14.83 3.17 -19.13 1.37 -2.03 3.97 -4.43 6.03 -5.53 2.33 -1.23 5.03 -1.80 9.13 -1.97 3.83 -0.13 4.43 -0.07 6.97 0.73 3.27 1.03 5.50 2.40 7.33 4.50 2 2.27 2.77 3.83 3.80 8.03 0.70 2.73 0.70 21.63 0 23 -0.77 1.47 -2.20 2.33 -3.97 2.33 -1.93 0 -2.87 -0.43 -3.80 -1.80 -0.70 -1.03 -0.73 -1.30 -0.73 -10.47 0 -6.30 -0.13 -9.90 -0.40 -10.90 -0.57 -2.13 -2.43 -4.43 -4.60 -5.63 -1.63 -0.90 -2.13 -1.03 -4.50 -1.03 -2.37 0 -2.87 0.13 -4.50 1.03 -2 1.13 -3.73 3.13 -4.40 5.07 -0.27 0.83 -0.43 4.50 -0.50 11.27 -0.13 9.73 -0.17 10.03 -0.87 10.87 -0.40 0.43 -1.07 1 -1.47 1.20 -1 0.53 -3.40 0.47 -4.50 -0.13z"/>
    </g>
    <g fill="#55a6ff">
      <path
        d="M189.17 63.83 c-9.23 -1.43 -15.57 -7.83 -17.20 -17.30 -1.03 -6.03 1.87 -13.33 7.03 -17.67 3.80 -3.17 7.83 -4.53 13.40 -4.53 3.43 0 4.23 0.10 6.80 1 6.20 2.10 10.57 6.47 12.67 12.67 1.37 4.07 1.03 10.37 -0.73 14.23 -3.03 6.50 -8.93 10.70 -16.57 11.73 -1.43 0.20 -2.63 0.37 -2.67 0.33 -0.03 -0.03 -1.27 -0.23 -2.73 -0.47z m6.33 -9 c2.50 -0.77 4.90 -2.53 6.23 -4.57 1.53 -2.33 1.93 -3.60 1.93 -6.13 0 -4.23 -2.17 -7.73 -6.07 -9.80 -1.97 -1.07 -2.30 -1.13 -5.27 -1.13 -2.63 0 -3.43 0.13 -4.73 0.77 -4.83 2.37 -7.57 7.40 -6.60 12.10 1.40 6.50 8.27 10.63 14.50 8.77z"/>
      <path
        d="M68.23 62.17 c-1.27 -0.43 -2.87 -1.17 -3.57 -1.63 -2 -1.33 -4.50 -4.03 -5.60 -6.10 -1.97 -3.73 -2.07 -4.63 -2.07 -19.80 0 -13.10 0.03 -13.87 0.67 -14.87 0.33 -0.60 1.03 -1.33 1.53 -1.63 1.20 -0.80 3.77 -0.77 4.90 0.07 1.60 1.13 1.90 2.33 1.90 7.07 l0 4.30 2.20 0.20 c2.57 0.20 3.67 0.87 4.57 2.73 0.73 1.50 0.57 3 -0.47 4.30 -1.03 1.30 -2.37 1.87 -4.47 1.87 l-1.83 0 0 4.27 c0.03 4.93 0.27 6.30 1.53 8.10 1.23 1.80 3.20 2.90 5.63 3.17 2.73 0.30 4.03 0.90 4.83 2.20 1.20 2 0.67 4.50 -1.30 5.90 -1.40 1 -5.37 0.93 -8.47 -0.13z"/>
    </g>
  </symbol>
  <use transform="matrix(1, 0, 0, 1, 0, 0)" xlink:href="#logo-symbol-wordmark"/>
</svg>
