<?xml version="1.0" encoding="utf-8"?>
<svg xmlns="http://www.w3.org/2000/svg" xmlns:xlink="http://www.w3.org/1999/xlink" width="79" height="79"
     viewBox="0 0 79 79">
  <symbol id="logo-symbol-icon">
    <g>
      <path
        d="M37.45 76.86 c-0.70 -0.06 -2.25 -0.28 -3.36 -0.47 -1.75 -0.30 -4.34 -1.17 -6.24 -2.09 -0.98 -0.47 -2.58 -1.40 -2.92 -1.69 -0.09 -0.07 -0.31 -0.24 -0.50 -0.36 -0.85 -0.57 -2.41 -2.04 -3.19 -3 -1.34 -1.68 -2.16 -3.32 -2.68 -5.33 -0.21 -0.84 -0.25 -1.18 -0.28 -2.25 -0.05 -1.37 0.02 -1.92 0.34 -3.28 0.71 -2.92 2.79 -5.85 5.67 -8.02 1.91 -1.43 4.84 -2.90 6.98 -3.51 0.30 -0.08 0.79 -0.22 1.09 -0.31 1.05 -0.30 2.53 -0.58 3.91 -0.74 2.79 -0.34 6.98 -0.18 9.16 0.34 0.37 0.09 0.85 0.19 1.07 0.24 0.77 0.14 2.09 0.55 3.56 1.12 2.21 0.85 4.18 2.01 6.04 3.59 2.46 2.07 4.07 4.52 4.83 7.37 0.27 0.99 0.27 1 0.27 2.80 -0.01 1.80 -0.01 1.82 -0.26 2.77 -0.68 2.51 -1.75 4.33 -3.76 6.42 -0.88 0.92 -2.63 2.28 -3.80 2.95 -0.64 0.36 -1.87 1.02 -1.92 1.02 -0.03 0 -0.16 0.06 -0.29 0.13 -1.45 0.76 -4.80 1.73 -7.19 2.09 -2.09 0.31 -4.60 0.40 -6.52 0.23z m-4.31 -10.03 c0.82 -0.10 1.79 -0.47 2.54 -0.96 0.66 -0.43 1.52 -1.34 1.90 -2 0.42 -0.70 0.82 -1.83 0.88 -2.46 l0.05 -0.49 0.36 -0.06 c0.45 -0.08 1.35 -0.08 1.82 0 l0.36 0.06 0.02 0.43 c0.02 0.52 0.42 1.74 0.74 2.27 0.13 0.21 0.23 0.40 0.23 0.43 0 0.08 0.80 0.97 1.16 1.31 0.83 0.76 1.98 1.29 3.21 1.46 0.78 0.11 0.96 0.11 1.75 0 2.43 -0.33 4.34 -1.97 5.12 -4.38 0.23 -0.70 0.25 -0.87 0.25 -1.80 0 -0.93 -0.02 -1.10 -0.24 -1.78 -0.33 -1.01 -0.73 -1.71 -1.44 -2.46 -1.23 -1.33 -2.84 -2.02 -4.63 -2 -1.79 0.02 -3.23 0.66 -4.48 2 -0.62 0.66 -0.99 1.22 -1.25 1.94 l-0.16 0.42 -0.34 -0.06 c-0.43 -0.08 -2.05 -0.09 -2.47 0 l-0.32 0.06 -0.14 -0.40 c-0.35 -1 -1.37 -2.28 -2.33 -2.91 -0.60 -0.40 -1.44 -0.76 -2.09 -0.91 -0.72 -0.16 -2.05 -0.16 -2.78 0.01 -2.13 0.47 -3.95 2.17 -4.57 4.26 -0.39 1.31 -0.39 2.35 0 3.67 0.66 2.21 2.67 4 4.87 4.33 0.88 0.13 1.15 0.13 2.01 0.03z"/>
      <path
        d="M31.88 65.14 c-0.36 -0.16 -0.53 -0.40 -0.58 -0.82 -0.06 -0.71 0.35 -1.12 1.15 -1.12 1.08 0 2.24 -1.14 2.36 -2.31 0.07 -0.66 0.17 -0.90 0.46 -1.08 0.70 -0.43 1.55 0.07 1.55 0.91 0 0.53 -0.35 1.73 -0.64 2.22 -0.73 1.22 -1.93 2.01 -3.35 2.24 -0.60 0.09 -0.66 0.09 -0.95 -0.03z"/>
      <path
        d="M46.87 65.14 c-0.28 -0.13 -0.58 -0.62 -0.58 -0.96 0 -0.28 0.28 -0.72 0.55 -0.86 0.13 -0.06 0.42 -0.12 0.66 -0.12 0.88 0 1.86 -0.76 2.17 -1.68 0.09 -0.27 0.18 -0.66 0.20 -0.86 0.04 -0.42 0.29 -0.83 0.58 -0.94 0.73 -0.28 1.37 0.22 1.37 1.07 0 1.58 -1.07 3.24 -2.54 3.93 -0.96 0.46 -1.94 0.63 -2.41 0.42z"/>
      <path
        d="M72.01 57.25 c-0.96 -2.13 -2.58 -4.91 -3.63 -6.23 -0.09 -0.12 -0.29 -0.38 -0.44 -0.59 -1.30 -1.80 -4.31 -4.91 -6.05 -6.24 -2.88 -2.20 -4.92 -3.46 -7.47 -4.61 -0.40 -0.17 -0.89 -0.40 -1.09 -0.49 -1.11 -0.51 -4.78 -1.68 -5.81 -1.85 -1.23 -0.20 -2.42 -0.57 -3.11 -0.97 -1.14 -0.67 -2.08 -1.76 -2.60 -3.03 -0.57 -1.37 -0.55 -3.40 0.02 -4.76 0.36 -0.81 0.68 -1.28 1.38 -2.02 1.07 -1.12 1.54 -2.20 1.54 -3.59 0 -2.10 -1.15 -3.82 -3.11 -4.67 -0.55 -0.24 -0.74 -0.28 -1.49 -0.32 -1.07 -0.06 -1.71 0.05 -2.44 0.40 -1.86 0.88 -2.95 2.56 -2.95 4.53 0 1.43 0.40 2.42 1.45 3.56 0.85 0.92 1.07 1.24 1.44 2.07 0.43 0.98 0.58 2.19 0.41 3.37 -0.28 1.97 -1.39 3.56 -3.16 4.55 -0.53 0.29 -1.52 0.60 -2.55 0.80 -2.07 0.40 -5.11 1.41 -7.23 2.40 -1.86 0.86 -4.41 2.31 -5.37 3.04 -0.32 0.24 -1.51 1.11 -1.69 1.24 -0.47 0.32 -2.42 2.05 -3.25 2.88 -1.93 1.93 -3.49 3.87 -4.93 6.12 -0.85 1.33 -1.77 3.03 -2.34 4.33 -0.12 0.27 -0.24 0.49 -0.28 0.49 -0.06 0 -1.65 -3.16 -1.65 -3.29 0 -0.04 -0.10 -0.32 -0.23 -0.62 -0.99 -2.34 -2.06 -6.25 -2.30 -8.30 -0.04 -0.35 -0.13 -1.06 -0.20 -1.57 -0.32 -2.39 -0.31 -5.86 0.01 -8.20 0.06 -0.49 0.15 -1.18 0.19 -1.52 0.03 -0.35 0.16 -1.04 0.27 -1.54 0.11 -0.50 0.22 -1.05 0.25 -1.22 0.02 -0.17 0.13 -0.62 0.24 -0.99 0.11 -0.37 0.23 -0.80 0.26 -0.95 0.09 -0.49 0.89 -2.77 1.42 -4.07 0.35 -0.88 1.58 -3.34 2.06 -4.15 0.22 -0.37 0.47 -0.79 0.56 -0.94 0.29 -0.51 1.45 -2.20 1.94 -2.83 0.17 -0.21 0.40 -0.53 0.54 -0.70 1.86 -2.45 5.15 -5.56 7.84 -7.42 0.79 -0.55 2.59 -1.70 2.66 -1.70 0.03 0 0.15 -0.06 0.26 -0.15 0.76 -0.53 3.69 -1.90 5.59 -2.60 2.09 -0.77 5.47 -1.64 7.11 -1.83 0.35 -0.04 1.06 -0.13 1.57 -0.20 2.39 -0.32 5.85 -0.31 8.20 0.01 0.49 0.06 1.19 0.15 1.56 0.20 2.09 0.24 5.69 1.22 8.06 2.20 0.24 0.09 0.58 0.23 0.75 0.29 0.88 0.32 3.45 1.65 4.98 2.58 2.54 1.54 5.56 4 7.50 6.10 1.27 1.37 2.58 2.97 3.21 3.88 0.97 1.43 1.98 2.99 1.98 3.08 0 0.02 0.06 0.14 0.15 0.25 0.31 0.44 1.52 2.93 2.01 4.12 0.78 1.91 1.69 4.75 1.84 5.73 0.02 0.17 0.13 0.66 0.23 1.08 0.10 0.42 0.21 0.97 0.24 1.22 0.03 0.25 0.12 0.94 0.20 1.52 0.35 2.46 0.40 6.03 0.13 8.30 -0.24 2.01 -0.38 2.92 -0.56 3.72 -0.11 0.46 -0.21 0.97 -0.24 1.15 -0.02 0.17 -0.13 0.61 -0.24 0.98 -0.11 0.37 -0.24 0.87 -0.30 1.11 -0.06 0.24 -0.17 0.62 -0.26 0.83 -0.08 0.22 -0.23 0.62 -0.32 0.91 -0.60 1.75 -1.47 3.72 -2.28 5.19 l-0.22 0.42 -0.23 -0.50z"/>
    </g>
  </symbol>
  <use transform="matrix(1, 0, 0, 1, 0, 0)" xlink:href="#logo-symbol-icon"/>
</svg>
